name ./resultDataOpenSim/trcMotMarkerGrf/sub09/grf-14-07.mot
datacolumns 19
datarows 10
range 0.48400000 0.52000000
endheader

                time	     ground_force_vx	     ground_force_vy	     ground_force_vz	     ground_force_px	     ground_force_py	     ground_force_pz	   l_ground_force_vx	   l_ground_force_vy	   l_ground_force_vz	   l_ground_force_px	   l_ground_force_py	   l_ground_force_pz	     ground_torque_x	     ground_torque_y	     ground_torque_z	   l_ground_torque_x	   l_ground_torque_y	   l_ground_torque_z	
          0.48400000	         43.72144887	        431.77170647	        -26.06375706	         -0.64589546	          0.00000000	          0.10889615	          0.00000000	          0.00000000	          0.00000000	          0.00000000	          0.00000000	          0.00000000	          0.00000000	          6.18580405	          0.00000000	          0.00000000	          0.00000000	          0.00000000	
          0.48800000	         47.61109353	        443.62914524	        -25.89547027	         -0.64442767	          0.00000000	          0.10936703	          0.00000000	          0.00000000	          0.00000000	          0.00000000	          0.00000000	          0.00000000	          0.00000000	          6.55831189	          0.00000000	          0.00000000	          0.00000000	          0.00000000	
          0.49200000	         51.08547491	        456.33663424	        -26.20011978	         -0.64278475	          0.00000000	          0.10986448	          0.00000000	          0.00000000	          0.00000000	          0.00000000	          0.00000000	          0.00000000	          0.00000000	          6.86576834	          0.00000000	          0.00000000	          0.00000000	          0.00000000	
          0.49600000	         54.15449259	        470.17692246	        -27.28256381	         -0.64126298	          0.00000000	          0.11030064	          0.00000000	          0.00000000	          0.00000000	          0.00000000	          0.00000000	          0.00000000	          0.00000000	          7.05457858	          0.00000000	          0.00000000	          0.00000000	          0.00000000	
          0.50000000	         56.92514880	        485.13240617	        -29.32427872	         -0.63994961	          0.00000000	          0.11066417	          0.00000000	          0.00000000	          0.00000000	          0.00000000	          0.00000000	          0.00000000	          0.00000000	          7.08529930	          0.00000000	          0.00000000	          0.00000000	          0.00000000	
          0.50400000	         59.54647518	        500.84788911	        -32.32442842	         -0.63862625	          0.00000000	          0.11101101	          0.00000000	          0.00000000	          0.00000000	          0.00000000	          0.00000000	          0.00000000	          0.00000000	          6.94344375	          0.00000000	          0.00000000	          0.00000000	          0.00000000	
          0.50800000	         62.20179457	        516.90940152	        -36.06410784	         -0.63708244	          0.00000000	          0.11138480	          0.00000000	          0.00000000	          0.00000000	          0.00000000	          0.00000000	          0.00000000	          0.00000000	          6.64637970	          0.00000000	          0.00000000	          0.00000000	          0.00000000	
          0.51200000	         65.07599801	        533.16568288	        -40.11741902	         -0.63539233	          0.00000000	          0.11172420	          0.00000000	          0.00000000	          0.00000000	          0.00000000	          0.00000000	          0.00000000	          0.00000000	          6.24357375	          0.00000000	          0.00000000	          0.00000000	          0.00000000	
          0.51600000	         68.28938629	        549.74334997	        -43.93291274	         -0.63382557	          0.00000000	          0.11188978	          0.00000000	          0.00000000	          0.00000000	          0.00000000	          0.00000000	          0.00000000	          0.00000000	          5.80909536	          0.00000000	          0.00000000	          0.00000000	          0.00000000	
          0.52000000	         71.85267066	        566.77019287	        -46.97302267	         -0.63253288	          0.00000000	          0.11179985	          0.00000000	          0.00000000	          0.00000000	          0.00000000	          0.00000000	          0.00000000	          0.00000000	          5.42772764	          0.00000000	          0.00000000	          0.00000000	          0.00000000	
